<svg height="63.857285pt" viewBox="0 0 57.926113 15.769202" width="234.57144pt" xmlns="http://www.w3.org/2000/svg" xmlns:xlink="http://www.w3.org/1999/xlink"><marker id="a" orient="auto" overflow="visible" refX="0" refY="0"><path d="m8.7185878 4.0337352-10.9258773-4.01772194 10.9258779-4.01772106c-1.7454984 2.3720609-1.7354408 5.6174519-.0000006 8.035443z" fill-rule="evenodd" stroke="#000" stroke-linejoin="round" stroke-width=".625" transform="scale(-.6)"/></marker><marker id="b" orient="auto" overflow="visible" refX="0" refY="0"><path d="m8.7185878 4.0337352-10.9258773-4.01772194 10.9258779-4.01772106c-1.7454984 2.3720609-1.7354408 5.6174519-.0000006 8.035443z" fill-rule="evenodd" stroke="#000" stroke-linejoin="round" stroke-width=".625" transform="scale(-.6)"/></marker><marker id="c" orient="auto" overflow="visible" refX="0" refY="0"><path d="m-2.5-1c0 2.76-2.24 5-5 5s-5-2.24-5-5 2.24-5 5-5 5 2.24 5 5z" fill-rule="evenodd" stroke="#000" stroke-width="1pt" transform="matrix(.2 0 0 .2 1.48 .2)"/></marker><marker id="d" orient="auto" overflow="visible" refX="0" refY="0"><path d="m-2.5-1c0 2.76-2.24 5-5 5s-5-2.24-5-5 2.24-5 5-5 5 2.24 5 5z" fill-rule="evenodd" stroke="#000" stroke-width="1pt" transform="matrix(.2 0 0 .2 1.48 .2)"/></marker><g transform="translate(-.3175 -280.9133)"><path d="m1.411087 282.18329h20.461161v13.405604h-20.461161z" fill="none" stroke="#a3ed00" stroke-linejoin="round" stroke-width=".705506"/><g stroke-width=".264583"><path d="m4.5150476 287.95865h-.7411861v2.35937h-.3686528v-2.35937h-.7605889v-.31433h1.9092334z"/><path d="m5.7645799 289.1849h-.4152195v1.13312h-.3686528v-2.6737h.7023806q.5005917 0 .7567084.19015.2599972.19015.2599972.56656 0 .2794-.1435806.45402-.1435805.17463-.4346222.26388l.7217833 1.19909h-.4385027zm-.042686-.28328q.2910416 0 .4385028-.11642.1474611-.12029.1474611-.38417 0-.24836-.1513417-.35701-.1474611-.11254-.4773083-.11254h-.3298474v.97014z"/><path d="m8.8340934 289.23535q0 .0892-.00776.18238h-1.3038678q.023283.33761.1707445.49672.1474611.1591.3802944.1591.1474611 0 .2716389-.0427.1241778-.0427.2599972-.13582l.1552223.21343q-.3259667.25612-.7140223.25612-.4268611 0-.6674555-.2794-.2367139-.2794-.2367139-.76835 0-.31821.1008944-.56268.104775-.24836.2949222-.38806.1940278-.1397.4540251-.1397.4074583 0 .6247694.26776.2173111.26776.2173111.74119zm-.3531305-.10478q0-.30268-.1202973-.46178-.1202972-.15911-.3608916-.15911-.4385028 0-.4773084.64418h.9584973z"/><path d="m10.875257 290.31802h-.430742l-.5005917-.86536-.5083528.86536h-.4035778l.7140222-1.07879-.6325305-.96626h.4191l.4268611.74895.4307415-.74895h.403578l-.62865.95074z"/><path d="m13.242388 288.2264q.2794 0 .434623.16687.159102.16686.159102.4579v1.46685h-.357011v-1.4164q0-.21731-.08149-.30656-.08149-.0893-.240595-.0893-.162983 0-.287161.0931-.124178.0931-.232833.26776v1.45132h-.357013v-2.04505h.306564l.03104.30268q.108655-.16298.267758-.25611.162984-.0931.357011-.0931z"/><path d="m15.306838 288.2264q.430742 0 .667455.28717.240595.28716.240595.77999 0 .3182-.108656.56268-.108655.24059-.314325.37641-.205669.13194-.48895.13194-.430741 0-.671336-.28716-.240594-.28716-.240594-.77999 0-.31821.108655-.5588.108656-.24448.314325-.37642.20567-.13582.492831-.13582zm0 .28717q-.531636 0-.531636.78387 0 .77999.527755.77999.527756 0 .527756-.78387 0-.77999-.523875-.77999z"/><path d="m18.368595 287.45029v2.86773h-.314325l-.03492-.28328q-.100895.15523-.252236.24448-.151342.0854-.337609.0854-.364772 0-.570441-.28716-.201789-.28716-.201789-.77223 0-.31433.09701-.5588.09701-.24448.2794-.3803.182386-.1397.426861-.1397.314325 0 .551039.25224v-1.07103zm-.861484 2.63102q.162984 0 .2794-.0737.116417-.0776.225073-.22895v-1.00119q-.100895-.13194-.217311-.19791-.112537-.0698-.256117-.0698-.236714 0-.368653.19791-.128058.19791-.128058.58985 0 .39581.120297.58984.120297.19403.345369.19403z"/><path d="m20.638714 289.23535q0 .0892-.0078.18238h-1.303867q.02328.33761.170745.49672.147461.1591.380294.1591.147461 0 .271639-.0427.124178-.0427.259997-.13582l.155223.21343q-.325967.25612-.714023.25612-.426861 0-.667455-.2794-.236714-.2794-.236714-.76835 0-.31821.100894-.56268.104775-.24836.294923-.38806.194027-.1397.454025-.1397.407458 0 .624769.26776.217311.26776.217311.74119zm-.35313-.10478q0-.30268-.120298-.46178-.120297-.15911-.360891-.15911-.438503 0-.477309.64418h.958498z"/></g><ellipse cx="46.919448" cy="284.476361" fill="none" rx="10.230556" ry="2.469454" stroke="#a3ed00" stroke-linejoin="round" stroke-width=".705556"/><g fill="none" stroke="#a3ed00" transform="translate(8.113887 -1.058339)"><path d="m49.036115 294.17767a10.230557 2.4688299 0 0 1 -5.115279 2.13807 10.230557 2.4688299 0 0 1 -10.230558 0 10.230557 2.4688299 0 0 1 -5.115278-2.13807" stroke-linejoin="round" stroke-width=".705552"/><g stroke-width=".705556" transform="matrix(.9999927 0 0 1 .000209 1.059034)"><path d="m28.575 284.65261v8.46683"/><path d="m49.036263 284.65261v8.46683"/></g></g><g stroke-width=".264583"><path d="m44.593061 289.00913q.267758 0 .457906.0776.190147.0737.368652.23284l-.201789.22507q-.151341-.1203-.298802-.17463-.143581-.0582-.310445-.0582-.20955 0-.345369.097-.13582.097-.13582.28328 0 .11642.04657.19791.04657.0776.170744.14358.128059.066.368653.1397.252236.0776.4191.16686.166864.0892.267759.24836.104775.15522.104775.39581 0 .23284-.116417.41134-.112536.17851-.329847.2794-.213431.1009-.508353.1009-.55492 0-.90805-.34537l.201789-.22507q.162983.13193.329847.20178.166864.066.372533.066.248356 0 .411339-.12029.162984-.12418.162984-.35701 0-.13194-.05045-.21732-.05045-.0892-.174625-.1591-.120297-.0698-.35313-.1397-.411339-.12418-.601486-.2988-.190148-.17463-.190148-.47343 0-.20179.104775-.36089.108656-.1591.298803-.24836.194028-.0892.438503-.0892z"/><path d="m47.879885 290.8718q0 .26776-.112536.47343-.108656.20178-.322087.3182-.20955.11254-.504472.11254-.446264 0-.690739-.24448-.240594-.24835-.240594-.65969v-1.8161h.368653v1.78893q0 .31045.1397.46567.1397.15522.42298.15522.287161 0 .426861-.15134.1397-.15522.1397-.46955v-1.78893h.372534z"/><path d="m50.157766 289.37002h-.741186v2.35938h-.368653v-2.35938h-.760589v-.31432h1.909233z"/></g><g fill="none" stroke="#000"><path d="m22.277142 287.07098c7.380747-6.15186 14.001053-.00001 14.001053-.00001" marker-end="url(#b)" marker-start="url(#c)" stroke-width=".352777"/><path d="m36.283953 290.21133c-7.380743 6.1524-14.001044.00001-14.001044.00001" marker-end="url(#a)" marker-start="url(#d)" stroke-width=".352778"/></g></g></svg>