<svg height="206pt" viewBox="0 0 93.203886 50.870557" width="377.42859pt" xmlns="http://www.w3.org/2000/svg" xmlns:xlink="http://www.w3.org/1999/xlink"><marker id="a" orient="auto" overflow="visible" refX="0" refY="0"><path d="m8.7185878 4.0337352-10.9258773-4.01772194 10.9258779-4.01772106c-1.7454984 2.3720609-1.7354408 5.6174519-.0000006 8.035443z" fill-rule="evenodd" stroke="#000" stroke-linejoin="round" stroke-width=".625" transform="scale(-.6)"/></marker><marker id="b" orient="auto" overflow="visible" refX="0" refY="0"><path d="m-2.5-1c0 2.76-2.24 5-5 5s-5-2.24-5-5 2.24-5 5-5 5 2.24 5 5z" fill-rule="evenodd" stroke="#000" stroke-width="1pt" transform="matrix(.2 0 0 .2 1.48 .2)"/></marker><marker id="c" orient="auto" overflow="visible" refX="0" refY="0"><path d="m-2.5-1c0 2.76-2.24 5-5 5s-5-2.24-5-5 2.24-5 5-5 5 2.24 5 5z" fill-rule="evenodd" stroke="#000" stroke-width="1pt" transform="matrix(.2 0 0 .2 1.48 .2)"/></marker><marker id="d" orient="auto" overflow="visible" refX="0" refY="0"><path d="m8.7185878 4.0337352-10.9258773-4.01772194 10.9258779-4.01772106c-1.7454984 2.3720609-1.7354408 5.6174519-.0000006 8.035443z" fill-rule="evenodd" stroke="#000" stroke-linejoin="round" stroke-width=".625" transform="scale(-.6)"/></marker><marker id="e" orient="auto" overflow="visible" refX="0" refY="0"><path d="m-2.5-1c0 2.76-2.24 5-5 5s-5-2.24-5-5 2.24-5 5-5 5 2.24 5 5z" fill-rule="evenodd" stroke="#000" stroke-width="1pt" transform="matrix(.2 0 0 .2 1.48 .2)"/></marker><marker id="f" orient="auto" overflow="visible" refX="0" refY="0"><path d="m8.7185878 4.0337352-10.9258773-4.01772194 10.9258779-4.01772106c-1.7454984 2.3720609-1.7354408 5.6174519-.0000006 8.035443z" fill-rule="evenodd" stroke="#000" stroke-linejoin="round" stroke-width=".625" transform="scale(-.6)"/></marker><marker id="g" orient="auto" overflow="visible" refX="0" refY="0"><path d="m-2.5-1c0 2.76-2.24 5-5 5s-5-2.24-5-5 2.24-5 5-5 5 2.24 5 5z" fill-rule="evenodd" stroke="#000" stroke-width="1pt" transform="matrix(.2 0 0 .2 1.48 .2)"/></marker><marker id="h" orient="auto" overflow="visible" refX="0" refY="0"><path d="m8.7185878 4.0337352-10.9258773-4.01772194 10.9258779-4.01772106c-1.7454984 2.3720609-1.7354408 5.6174519-.0000006 8.035443z" fill-rule="evenodd" stroke="#000" stroke-linejoin="round" stroke-width=".625" transform="scale(-.6)"/></marker><g transform="translate(-.3175 -245.81195)"><ellipse cx="46.919448" cy="266.925675" fill="none" rx="10.230556" ry="2.469454" stroke="#a3ed00" stroke-linejoin="round" stroke-width=".705556"/><g fill="none" stroke="#a3ed00" transform="translate(8.113887 -18.609025)"><path d="m49.036115 294.17767a10.230557 2.4688299 0 0 1 -5.115279 2.13807 10.230557 2.4688299 0 0 1 -10.230558 0 10.230557 2.4688299 0 0 1 -5.115278-2.13807" stroke-linejoin="round" stroke-width=".705552"/><g stroke-width=".705556" transform="matrix(.9999927 0 0 1 .000209 1.059034)"><path d="m28.575 284.65261v8.46683"/><path d="m49.036263 284.65261v8.46683"/></g></g><g stroke-width=".264583"><path d="m44.593061 271.45844q.267758 0 .457906.0776.190147.0737.368652.23284l-.201789.22507q-.151341-.1203-.298802-.17463-.143581-.0582-.310445-.0582-.20955 0-.345369.097-.13582.097-.13582.28328 0 .11642.04657.19791.04657.0776.170744.14358.128059.066.368653.1397.252236.0776.4191.16686.166864.0892.267759.24836.104775.15522.104775.39581 0 .23284-.116417.41134-.112536.17851-.329847.2794-.213431.1009-.508353.1009-.55492 0-.90805-.34537l.201789-.22507q.162983.13193.329847.20178.166864.066.372533.066.248356 0 .411339-.12029.162984-.12418.162984-.35701 0-.13194-.05045-.21732-.05045-.0893-.174625-.1591-.120297-.0699-.35313-.1397-.411339-.12418-.601486-.2988-.190148-.17463-.190148-.47343 0-.20179.104775-.36089.108656-.1591.298803-.24836.194028-.0892.438503-.0892z"/><path d="m47.879885 273.32111q0 .26776-.112536.47343-.108656.20178-.322087.3182-.20955.11254-.504472.11254-.446264 0-.690739-.24448-.240594-.24835-.240594-.65969v-1.8161h.368653v1.78893q0 .31045.1397.46567.1397.15522.42298.15522.287161 0 .426861-.15134.1397-.15522.1397-.46955v-1.78893h.372534z"/><path d="m50.157766 271.81933h-.741186v2.35938h-.368653v-2.35938h-.760589v-.31432h1.909233z"/></g><path d="m1.411087 246.90553h20.461161v13.405604h-20.461161z" fill="none" stroke="#a3ed00" stroke-linejoin="round" stroke-width=".705506"/><g stroke-width=".264583"><path d="m4.515048 249.88688h-.7411861v2.35938h-.3686528v-2.35938h-.7605889v-.31432h1.9092333z"/><path d="m5.7645802 251.11314h-.4152194v1.13312h-.3686528v-2.6737h.7023806q.5005916 0 .7567083.19015.2599972.19014.2599972.56656 0 .2794-.1435805.45402-.1435806.17463-.4346222.26388l.7217833 1.19909h-.4385028zm-.042686-.28328q.2910417 0 .4385028-.11642.1474611-.1203.1474611-.38417 0-.24836-.1513416-.35701-.1474612-.11254-.4773084-.11254h-.3298473v.97014z"/><path d="m8.8340938 251.16359q0 .0892-.00776.18238h-1.3038678q.023283.33761.1707444.49671.1474611.15911.3802945.15911.1474611 0 .2716389-.0427.1241778-.0427.2599972-.13582l.1552222.21343q-.3259666.25612-.7140222.25612-.4268611 0-.6674556-.2794-.2367139-.2794-.2367139-.76835 0-.31821.1008945-.56268.104775-.24836.2949222-.38806.1940278-.1397.454025-.1397.4074584 0 .6247695.26776.2173111.26776.2173111.74119zm-.3531306-.10478q0-.30268-.1202972-.46178-.1202972-.15911-.3608917-.15911-.4385028 0-.4773083.64417h.9584972z"/><path d="m10.875257 252.24626h-.430742l-.5005914-.86536-.5083527.86536h-.4035778l.7140222-1.07879-.6325306-.96626h.4191l.4268612.74895.4307421-.74895h.403577l-.62865.95073z"/><path d="m13.242389 250.15464q.2794 0 .434622.16687.159103.16686.159103.4579v1.46685h-.357011v-1.4164q0-.21731-.08149-.30657-.08149-.0892-.240595-.0892-.162983 0-.287161.0931-.124177.0931-.232833.26775v1.45133h-.357011v-2.04505h.306564l.03104.30268q.108656-.16298.267759-.25611.162983-.0931.357011-.0931z"/><path d="m15.306838 250.15464q.430742 0 .667456.28716.240594.28716.240594.77999 0 .31821-.108655.56269-.108656.24059-.314325.37641-.20567.13194-.48895.13194-.430742 0-.671336-.28716-.240595-.28716-.240595-.77999 0-.31821.108656-.5588.108655-.24448.314325-.37642.205669-.13582.49283-.13582zm0 .28716q-.531636 0-.531636.78388 0 .77999.527756.77999.527755 0 .527755-.78388 0-.77999-.523875-.77999z"/><path d="m18.368595 249.37853v2.86773h-.314325l-.03492-.28328q-.100894.15522-.252236.24448-.151342.0854-.337608.0854-.364773 0-.570442-.28716-.201789-.28716-.201789-.77223 0-.31433.09701-.5588.09701-.24448.2794-.3803.182386-.1397.426861-.1397.314325 0 .551039.25224v-1.07104zm-.861483 2.63102q.162983 0 .2794-.0737.116416-.0776.225072-.22896v-1.00118q-.100894-.13194-.217311-.19791-.112536-.0699-.256117-.0699-.236714 0-.368653.19791-.128058.19791-.128058.58985 0 .39581.120297.58984.120298.19403.34537.19403z"/><path d="m20.638715 251.16359q0 .0892-.0078.18238h-1.303866q.02328.33761.170744.49671.147461.15911.380295.15911.147461 0 .271639-.0427.124177-.0427.259997-.13582l.155222.21343q-.325967.25612-.714022.25612-.426861 0-.667456-.2794-.236714-.2794-.236714-.76835 0-.31821.100895-.56268.104775-.24836.294922-.38806.194028-.1397.454025-.1397.407458 0 .624769.26776.217312.26776.217312.74119zm-.353131-.10478q0-.30268-.120297-.46178-.120297-.15911-.360892-.15911-.438503 0-.477308.64417h.958497z"/><path d="m10.805411 254.73758h-.741186v2.35938h-.3686526v-2.35938h-.7605889v-.31433h1.9092335z"/><path d="m12.959113 257.09696h-.4191l-.617008-1.18357-.62477 1.18357h-.395816l.803275-1.42417-.733425-1.24954h.4191l.539397 1.00507.543278-1.00507h.395816l-.725664 1.23014z"/><path d="m14.057305 257.88083h-.298802v-1.31163l-.380295.22119-.131939-.20567.543278-.32208h.267758z"/></g><path d="m1.411087 264.54443h20.461161v13.405604h-20.461161z" fill="none" stroke="#a3ed00" stroke-linejoin="round" stroke-width=".705506"/><g stroke-width=".264583"><path d="m4.515048 267.52578h-.7411861v2.35938h-.3686528v-2.35938h-.7605889v-.31432h1.9092333z"/><path d="m5.7645802 268.75204h-.4152194v1.13312h-.3686528v-2.6737h.7023806q.5005916 0 .7567083.19015.2599972.19014.2599972.56656 0 .2794-.1435805.45402-.1435806.17463-.4346222.26388l.7217833 1.19909h-.4385028zm-.042686-.28328q.2910417 0 .4385028-.11642.1474611-.12029.1474611-.38417 0-.24836-.1513416-.35701-.1474612-.11254-.4773084-.11254h-.3298473v.97014z"/><path d="m8.8340938 268.80249q0 .0893-.00776.18238h-1.3038678q.023283.33761.1707444.49671.1474611.15911.3802945.15911.1474611 0 .2716389-.0427.1241778-.0427.2599972-.13582l.1552222.21343q-.3259666.25612-.7140222.25612-.4268611 0-.6674556-.2794-.2367139-.2794-.2367139-.76835 0-.31821.1008945-.56268.104775-.24836.2949222-.38806.1940278-.1397.454025-.1397.4074584 0 .6247695.26776.2173111.26776.2173111.74119zm-.3531306-.10478q0-.30268-.1202972-.46178-.1202972-.15911-.3608917-.15911-.4385028 0-.4773083.64418h.9584972z"/><path d="m10.875257 269.88516h-.430742l-.5005914-.86536-.5083527.86536h-.4035778l.7140222-1.07879-.6325306-.96626h.4191l.4268612.74895.4307421-.74895h.403577l-.62865.95074z"/><path d="m13.242389 267.79354q.2794 0 .434622.16687.159103.16686.159103.4579v1.46685h-.357011v-1.4164q0-.21731-.08149-.30656-.08149-.0893-.240595-.0893-.162983 0-.287161.0931-.124177.0931-.232833.26775v1.45133h-.357011v-2.04505h.306564l.03104.30268q.108656-.16298.267759-.25611.162983-.0931.357011-.0931z"/><path d="m15.306838 267.79354q.430742 0 .667456.28716.240594.28717.240594.78 0 .3182-.108655.56268-.108656.24059-.314325.37641-.20567.13194-.48895.13194-.430742 0-.671336-.28716-.240595-.28716-.240595-.77999 0-.31821.108656-.5588.108655-.24448.314325-.37642.205669-.13582.49283-.13582zm0 .28716q-.531636 0-.531636.78388 0 .77999.527756.77999.527755 0 .527755-.78387 0-.78-.523875-.78z"/><path d="m18.368595 267.01743v2.86773h-.314325l-.03492-.28328q-.100894.15522-.252236.24448-.151342.0854-.337608.0854-.364773 0-.570442-.28716-.201789-.28716-.201789-.77223 0-.31433.09701-.5588.09701-.24448.2794-.3803.182386-.1397.426861-.1397.314325 0 .551039.25224v-1.07103zm-.861483 2.63102q.162983 0 .2794-.0737.116416-.0776.225072-.22895v-1.00119q-.100894-.13194-.217311-.19791-.112536-.0698-.256117-.0698-.236714 0-.368653.19791-.128058.19791-.128058.58985 0 .39581.120297.58984.120298.19403.34537.19403z"/><path d="m20.638715 268.80249q0 .0893-.0078.18238h-1.303866q.02328.33761.170744.49671.147461.15911.380295.15911.147461 0 .271639-.0427.124177-.0427.259997-.13582l.155222.21343q-.325967.25612-.714022.25612-.426861 0-.667456-.2794-.236714-.2794-.236714-.76835 0-.31821.100895-.56268.104775-.24836.294922-.38806.194028-.1397.454025-.1397.407458 0 .624769.26776.217312.26776.217312.74119zm-.353131-.10478q0-.30268-.120297-.46178-.120297-.15911-.360892-.15911-.438503 0-.477308.64418h.958497z"/><path d="m10.805411 272.37648h-.741186v2.35938h-.3686526v-2.35938h-.7605889v-.31433h1.9092335z"/><path d="m12.959113 274.73586h-.4191l-.617008-1.18357-.62477 1.18357h-.395816l.803275-1.42417-.733425-1.24954h.4191l.539397 1.00507.543278-1.00507h.395816l-.725664 1.23014z"/><path d="m13.750742 273.87437q.248355 0 .391936.13194.147461.13194.147461.33373 0 .13194-.06597.25612-.06209.12029-.205669.27552-.143581.15522-.422981.40745h.733425l-.03104.2406h-1.04387v-.22507q.325967-.31433.465667-.46567.1397-.14746.197908-.25224.06209-.10477.06209-.21343 0-.11641-.06985-.18238-.06985-.066-.182386-.066-.100894 0-.174625.0388-.07373.0388-.155222.13194l-.190147-.14746q.21343-.26388.543278-.26388z"/></g><path d="m22.278474 271.67462c5.568485-2.31664 5.572996 0 13.877073 0" fill="none" marker-end="url(#d)" marker-start="url(#c)" stroke="#000" stroke-width=".352777"/><path d="m1.411087 282.18332h20.461161v13.405604h-20.461161z" fill="none" stroke="#a3ed00" stroke-linejoin="round" stroke-width=".705506"/><g stroke-width=".264583"><path d="m4.515048 285.16467h-.7411861v2.35938h-.3686528v-2.35938h-.7605889v-.31432h1.9092333z"/><path d="m5.7645802 286.39093h-.4152194v1.13312h-.3686528v-2.6737h.7023806q.5005916 0 .7567083.19014.2599972.19015.2599972.56656 0 .2794-.1435805.45403-.1435806.17462-.4346222.26388l.7217833 1.19909h-.4385028zm-.042686-.28328q.2910417 0 .4385028-.11642.1474611-.1203.1474611-.38418 0-.24835-.1513416-.35701-.1474612-.11253-.4773084-.11253h-.3298473v.97014z"/><path d="m8.8340938 286.44137q0 .0893-.00776.18239h-1.3038678q.023283.33761.1707444.49671.1474611.1591.3802945.1591.1474611 0 .2716389-.0427.1241778-.0427.2599972-.13582l.1552222.21343q-.3259666.25611-.7140222.25611-.4268611 0-.6674556-.2794-.2367139-.2794-.2367139-.76835 0-.3182.1008945-.56268.104775-.24835.2949222-.38805.1940278-.1397.454025-.1397.4074584 0 .6247695.26776.2173111.26776.2173111.74118zm-.3531306-.10477q0-.30269-.1202972-.46179-.1202972-.1591-.3608917-.1591-.4385028 0-.4773083.64417h.9584972z"/><path d="m10.875257 287.52405h-.430742l-.5005914-.86537-.5083527.86537h-.4035778l.7140222-1.0788-.6325306-.96625h.4191l.4268612.74894.4307421-.74894h.403577l-.62865.95073z"/><path d="m13.242389 285.43243q.2794 0 .434622.16686.159103.16687.159103.45791v1.46685h-.357011v-1.4164q0-.21732-.08149-.30657-.08149-.0892-.240595-.0892-.162983 0-.287161.0931-.124177.0931-.232833.26776v1.45133h-.357013v-2.04507h.306564l.03104.30268q.108656-.16298.267759-.25612.162983-.0931.357011-.0931z"/><path d="m15.306838 285.43243q.430742 0 .667456.28716.240594.28716.240594.77999 0 .31821-.108655.56268-.108656.2406-.314325.37642-.20567.13193-.48895.13193-.430742 0-.671336-.28716-.240595-.28716-.240595-.77999 0-.3182.108656-.5588.108655-.24447.314325-.37641.205669-.13582.49283-.13582zm0 .28716q-.531636 0-.531636.78387 0 .77999.527756.77999.527755 0 .527755-.78387 0-.77999-.523875-.77999z"/><path d="m18.368595 284.65632v2.86773h-.314325l-.03492-.28328q-.100894.15522-.252236.24447-.151342.0854-.337608.0854-.364773 0-.570442-.28716-.201789-.28716-.201789-.77223 0-.31432.09701-.5588.09701-.24447.2794-.38029.182386-.1397.426861-.1397.314325 0 .551039.25223v-1.07103zm-.861483 2.63101q.162983 0 .2794-.0737.116416-.0776.225072-.22895v-1.00118q-.100894-.13194-.217311-.19791-.112536-.0698-.256117-.0698-.236714 0-.368653.19791-.128058.19791-.128058.58984 0 .39582.120297.58985.120298.19402.34537.19402z"/><path d="m20.638715 286.44137q0 .0893-.0078.18239h-1.303866q.02328.33761.170744.49671.147461.1591.380295.1591.147461 0 .271639-.0427.124177-.0427.259997-.13582l.155222.21343q-.325967.25611-.714022.25611-.426861 0-.667456-.2794-.236714-.2794-.236714-.76835 0-.3182.100895-.56268.104775-.24835.294922-.38805.194028-.1397.454025-.1397.407458 0 .624769.26776.217312.26776.217312.74118zm-.353131-.10477q0-.30269-.120297-.46179-.120297-.1591-.360892-.1591-.438503 0-.477308.64417h.958497z"/><path d="m10.805411 290.01536h-.741186v2.35938h-.3686526v-2.35938h-.7605889v-.31432h1.9092335z"/><path d="m12.959113 292.37474h-.4191l-.617008-1.18357-.62477 1.18357h-.395816l.803275-1.42416-.733425-1.24954h.4191l.539397 1.00506.543278-1.00506h.395816l-.725664 1.23014z"/><path d="m13.758503 291.51326q.248355 0 .388055.11642.143581.11641.143581.29104 0 .14746-.08925.24447-.08925.097-.244475.13582.170744.0155.2794.11642.108656.10089.108656.2794 0 .21343-.166864.35313-.162984.14358-.442384.14358-.337608 0-.539397-.23283l.174625-.16299q.147461.15911.34925.15911.143581 0 .225072-.0737.08537-.0737.08537-.20179 0-.1397-.08149-.20179-.07761-.0582-.228953-.0582h-.131939l.03493-.21731h.08925q.124178 0 .201789-.0621.07761-.066.07761-.18239 0-.10089-.06985-.1591-.06985-.0582-.186267-.0582-.09701 0-.178505.0349-.08149.0349-.162984.10865l-.155222-.17074q.225072-.20179.519995-.20179z"/></g><g fill="none"><path d="m22.279072 287.07521c3.991044 0-.158463-12.79141 13.8765-12.79141" marker-end="url(#a)" marker-start="url(#b)" stroke="#000" stroke-width=".35276"/><path d="m22.279073 256.1248c3.991042 0-.158464 12.79819 13.876496 12.79819" marker-end="url(#f)" marker-start="url(#e)" stroke="#000" stroke-width=".352761"/><path d="m71.966644 264.54443h20.461161v13.405604h-20.461161z" stroke="#a3ed00" stroke-linejoin="round" stroke-width=".705506"/></g><g stroke-width=".264583"><path d="m75.0706 267.52578h-.741186v2.35938h-.368652v-2.35938h-.760589v-.31432h1.909233z"/><path d="m76.320133 268.75204h-.41522v1.13312h-.368653v-2.6737h.702381q.500592 0 .756708.19015.259998.19014.259998.56656 0 .2794-.143581.45402-.14358.17463-.434622.26388l.721783 1.19909h-.438503zm-.04269-.28328q.291041 0 .438502-.11642.147462-.12029.147462-.38417 0-.24836-.151342-.35701-.147461-.11254-.477309-.11254h-.329847v.97014z"/><path d="m79.389646 268.80249q0 .0893-.0078.18238h-1.303867q.02328.33761.170745.49671.147461.15911.380294.15911.147461 0 .271639-.0427.124178-.0427.259997-.13582l.155223.21343q-.325967.25612-.714023.25612-.426861 0-.667455-.2794-.236714-.2794-.236714-.76835 0-.31821.100894-.56268.104775-.24836.294923-.38806.194027-.1397.454025-.1397.407458 0 .624769.26776.217311.26776.217311.74119zm-.35313-.10478q0-.30268-.120298-.46178-.120297-.15911-.360891-.15911-.438503 0-.477309.64418h.958498z"/><path d="m81.430809 269.88516h-.430741l-.500592-.86536-.508353.86536h-.403577l.714022-1.07879-.632531-.96626h.4191l.426861.74895.430742-.74895h.403578l-.62865.95074z"/><path d="m83.797941 267.79354q.2794 0 .434622.16687.159103.16686.159103.4579v1.46685h-.357011v-1.4164q0-.21731-.08149-.30656-.08149-.0893-.240594-.0893-.162983 0-.287161.0931-.124178.0931-.232834.26775v1.45133h-.357011v-2.04505h.306564l.03104.30268q.108655-.16298.267758-.25611.162983-.0931.357011-.0931z"/><path d="m85.862391 267.79354q.430741 0 .667455.28716.240595.28717.240595.78 0 .3182-.108656.56268-.108655.24059-.314325.37641-.205669.13194-.48895.13194-.430742 0-.671336-.28716-.240594-.28716-.240594-.77999 0-.31821.108655-.5588.108656-.24448.314325-.37642.20567-.13582.492831-.13582zm0 .28716q-.531636 0-.531636.78388 0 .77999.527755.77999.527756 0 .527756-.78387 0-.78-.523875-.78z"/><path d="m88.924148 267.01743v2.86773h-.314325l-.03493-.28328q-.100895.15522-.252237.24448-.151341.0854-.337608.0854-.364772 0-.570442-.28716-.201788-.28716-.201788-.77223 0-.31433.09701-.5588.09701-.24448.2794-.3803.182387-.1397.426862-.1397.314325 0 .551038.25224v-1.07103zm-.861484 2.63102q.162984 0 .2794-.0737.116417-.0776.225072-.22895v-1.00119q-.100894-.13194-.217311-.19791-.112536-.0698-.256116-.0698-.236714 0-.368653.19791-.128058.19791-.128058.58985 0 .39581.120297.58984.120297.19403.345369.19403z"/><path d="m91.194267 268.80249q0 .0893-.0078.18238h-1.303867q.02328.33761.170745.49671.147461.15911.380294.15911.147461 0 .271639-.0427.124178-.0427.259997-.13582l.155222.21343q-.325966.25612-.714022.25612-.426861 0-.667455-.2794-.236714-.2794-.236714-.76835 0-.31821.100894-.56268.104775-.24836.294922-.38806.194028-.1397.454025-.1397.407459 0 .62477.26776.217311.26776.217311.74119zm-.353131-.10478q0-.30268-.120297-.46178-.120297-.15911-.360891-.15911-.438503 0-.477309.64418h.958497z"/><path d="m81.217379 273.60273h-.415219v1.13313h-.368653v-2.67371h.702381q.500591 0 .756708.19015.259997.19015.259997.56656 0 .2794-.14358.45403-.143581.17462-.434622.26388l.721783 1.19909h-.438503zm-.04269-.28328q.291042 0 .438503-.11641.147461-.1203.147461-.38418 0-.24835-.151341-.35701-.147462-.11253-.477309-.11253h-.329843v.97013z"/><path d="m84.469283 274.73586h-.4191l-.617008-1.18357-.624769 1.18357h-.395817l.803275-1.42417-.733425-1.24954h.4191l.539397 1.00507.543278-1.00507h.395817l-.725664 1.23014z"/></g><path d="m57.556252 271.67462c5.568485-2.31664 5.572996 0 13.877073 0" fill="none" marker-end="url(#h)" marker-start="url(#g)" stroke="#000" stroke-width=".352777"/></g></svg>